<?xml version="1.0" encoding="UTF-8" standalone="no"?>
<!-- Created with Inkscape (http://www.inkscape.org/) -->

<svg
   version="1.1"
   id="svg1"
   width="2500"
   height="2500"
   viewBox="0 0 2500 2500"
   xmlns="http://www.w3.org/2000/svg"
   xmlns:svg="http://www.w3.org/2000/svg">
  <defs
     id="defs1" />
  <g
     id="g1">
    <path
       style="fill:#fc5e00;fill-opacity:1;stroke:#fc5e00;stroke-width:3;stroke-dasharray:none;stroke-opacity:1"
       d="m 1214.4694,2499.0777 c -214.49643,-5.8508 -421.60657,-66.263 -607.00777,-177.0588 -68.25405,-40.7886 -132.09271,-88.0654 -195.65816,-144.8979 -19.35804,-17.3076 -72.34032,-70.2615 -89.6572,-89.6091 C 265.15444,2023.8366 219.34181,1962.0627 177.86218,1892.959 71.293802,1715.4194 11.814188,1519.9882 0.98129588,1311.7845 c -1.30839451,-25.1468 -1.30839451,-98.8904 0,-124.0372 C 8.55352,1042.2121 40.230398,901.5914 95.057531,770.1219 144.88687,650.63655 214.08628,537.8669 297.61454,440.02831 328.42804,403.93574 379.77733,351.04466 411.80347,322.41079 500.07045,243.49323 588.44319,183.14513 690.53112,132.0729 724.31022,115.174 738.94453,108.43706 770.09768,95.444317 1035.4649,-15.229871 1335.0754,-30.204558 1611.3014,53.400526 c 248.6567,75.260744 465.4926,223.991614 625.6394,429.135044 79.5983,101.96311 144.9385,220.36895 188.9804,342.45949 42.4083,117.5621 66.4881,237.51964 73.1189,364.25264 1.2905,24.6649 1.2767,97.5539 -0.023,122.5368 -7.5722,145.5352 -39.249,286.1559 -94.0762,417.6254 -49.8293,119.4854 -119.0287,232.255 -202.557,330.0936 -30.8135,36.0925 -82.1628,88.9836 -114.1889,117.6175 -73.9053,66.0771 -144.3977,116.5811 -230.1871,164.9166 -20.2067,11.3849 -71.7452,37.403 -93.0778,46.9884 -136.597,61.3771 -279.5027,97.2842 -428.3584,107.6314 -19.1406,1.3305 -85.5211,3.6954 -92.5774,3.2982 -1.3761,-0.077 -14.6623,-0.4725 -29.5247,-0.8779 z m 100.5841,-74.0182 c 128.7429,-7.2885 251.3344,-34.0762 368.4724,-80.5151 179.3226,-71.092 336.9816,-183.9147 463.3085,-331.5494 107.248,-125.3375 188.8919,-276.7552 234.6212,-435.1306 24.5292,-84.9529 38.8966,-169.8936 44.6681,-264.0793 1.6194,-26.4275 1.6194,-101.6109 0,-128.0384 C 2415.8328,1017.8078 2376.3299,868.64431 2303.7355,723.60794 2232.6589,581.60414 2135.3938,457.48308 2013.6379,353.41165 1854.6957,217.55493 1658.278,125.40114 1452.1682,89.985548 1382.5062,78.015595 1323.6254,73.09685 1249.9991,73.09685 c -42.3476,0 -65.5843,0.892926 -100.5841,3.865168 C 916.85589,96.711321 698.24074,183.82329 515.12966,329.70682 458.03307,375.19533 402.05842,429.39502 353.16376,486.53677 245.9158,611.8743 164.27187,763.29193 118.54266,921.6674 c -24.529233,84.9529 -38.896671,169.8936 -44.668119,264.0793 -1.619415,26.4275 -1.619415,101.6109 0,128.0384 10.290848,167.9389 49.793839,317.1024 122.388249,462.1388 71.07655,142.0038 168.34173,266.1249 290.09754,370.1962 147.85714,126.3817 328.85978,215.3728 519.43447,255.3831 69.3774,14.5654 138.3278,22.6566 213.1784,25.0157 16.8938,0.5324 77.0335,-0.381 96.0803,-1.4594 z m -114.5958,-144.0404 c -53.6465,-2.3548 -119.0983,-10.941 -172.144,-22.5826 C 775.28471,2202.9061 554.27128,2057.2909 405.27421,1847.9455 302.2532,1703.1978 238.29045,1534.5737 219.73028,1358.7986 c -4.662,-44.1516 -5.09554,-53.2992 -5.09641,-107.5322 -0.001,-72.1648 3.42867,-114.1487 14.58677,-178.5537 C 277.10391,796.32909 438.47386,548.29132 671.57158,392.78606 836.36893,282.84568 1024.0659,223.21287 1222.319,217.8093 c 21.8012,-0.59421 25.3977,-0.46844 30.9289,1.08156 3.4426,0.96468 7.0412,2.16181 7.997,2.66029 0.9559,0.49848 2.9826,0.89693 4.5038,0.88545 2.6329,-0.0199 20.3186,2.09252 34.2923,4.09591 3.578,0.51297 38.9326,2.99067 78.5657,5.50599 39.6332,2.51532 97.7708,6.26603 129.1948,8.33491 l 57.1345,3.7616 60.4638,31.838 c 66.8415,35.19615 127.3324,67.41077 139.2975,74.1832 7.132,4.03687 114.8814,89.43614 140.3498,111.23752 19.4795,16.67477 114.1025,103.40356 185.2044,169.75308 l 27.0722,25.26271 31.3913,74.86159 c 69.7756,166.40015 88.1709,210.84593 87.8832,212.33915 -0.3576,1.85598 -3.4331,2.9216 -23.2933,8.07085 -14.6933,3.8096 -16.3959,4.01236 -80.0669,9.53433 l -65.0545,5.64196 -122.6025,-0.65667 c -105.0797,-0.56282 -131.1137,-1.00463 -182.1524,-3.09128 -32.7524,-1.33904 -69.4581,-2.70915 -81.5682,-3.04469 l -22.0184,-0.61008 -64.0536,-63.66382 c -35.2295,-35.0151 -69.2421,-68.72693 -75.5836,-74.91517 l -11.5301,-11.25136 -53.5244,-14.04856 c -29.4384,-7.72671 -87.7954,-23.02918 -129.6822,-34.00549 l -76.158,-19.95694 -14.4178,0.0103 c -34.2263,0.0245 -81.4929,6.63119 -118.5049,16.56407 -154.04571,41.34102 -278.17199,149.72084 -339.43219,296.37229 -19.84771,47.5137 -33.39786,103.453 -37.33811,154.1435 -1.33209,17.1371 -1.35277,64.8612 -0.0354,81.6794 6.50072,82.9898 34.90893,166.2354 80.86663,236.9663 57.00471,87.7328 141.0212,156.388 238.49307,194.8876 55.6487,21.9803 109.8862,33.2215 172.2711,35.7046 l 23.749,0.9452 38.3029,-4.9699 c 93.8139,-12.1727 134.1023,-17.891 135.7247,-19.2639 0.9136,-0.7731 10.2183,-8.3764 20.677,-16.8963 10.4588,-8.52 56.6068,-46.2693 102.5511,-83.8875 45.9445,-37.6182 85.5776,-69.3783 88.0737,-70.5781 2.4962,-1.1997 18.7617,-7.6471 36.1456,-14.3275 l 31.6072,-12.1461 101.5042,-4.0144 101.5042,-4.0144 119.0996,3.5997 119.0996,3.5999 44.0369,6.0193 c 24.2202,3.3105 45.7647,6.2702 47.8764,6.5771 2.1118,0.3068 4.0507,1.1077 4.3088,1.78 0.4483,1.1675 -14.1702,34.7476 -74.6782,171.5431 -14.9661,33.8352 -28.3816,64.2193 -29.8121,67.5203 -1.4305,3.301 -4.2087,8.0235 -6.1738,10.4946 -6.277,7.8927 -49.9996,59.7299 -102.2878,121.2714 l -50.7613,59.7444 -78.4338,71.2949 c -43.1385,39.2123 -81.1163,73.6006 -84.3951,76.4185 -7.043,6.0531 -13.819,9.5225 -55.0023,28.1623 -103.5854,46.8835 -176.5425,79.5992 -179.1498,80.3352 -4.2888,1.2107 -65.7855,8.7065 -208.6746,25.4354 -122.8343,14.381 -124.6331,14.623 -126.6435,17.0397 -2.0097,2.416 -2.256,2.4493 -17.0143,2.2966 -8.2361,-0.085 -22.6313,-0.4911 -31.9891,-0.9018 z m 126.1791,-37.1175 c 39.8679,-9.9925 72.4871,-18.4601 72.4871,-18.8167 0,-0.3566 -31.4138,-3.0256 -69.8084,-5.9312 -38.3946,-2.9055 -71.9477,-5.529 -74.5624,-5.83 l -4.754,-0.5473 v 24.6467 c 0,24.2716 0.032,24.6467 2.0754,24.6467 1.1414,0 34.6945,-8.1757 74.5623,-18.1682 z m 44.964,4.6843 c 15.207,-1.6306 124.0205,-15.6081 124.3911,-15.9786 0.7601,-0.7598 -6.0533,-1.5153 -27.3098,-3.0283 l -21.0176,-1.4961 -11.5097,2.4049 c -18.7413,3.9162 -72.4772,17.6149 -73.5615,18.7529 -0.6885,0.7226 -0.3762,0.8847 1.0008,0.5197 1.101,-0.2919 4.704,-0.8203 8.0067,-1.1745 z m 226.0102,-41.9141 c 23.6965,-20.039 26.4507,-22.5339 24.9318,-22.5838 -1.9503,-0.064 -85.4392,20.9408 -87.2301,21.9461 -1.4098,0.7912 -1.4134,0.9474 -0.034,1.4786 2.088,0.8046 43.4123,14.5055 43.8173,14.5276 0.1768,0.01 8.5087,-6.9062 18.5155,-15.3685 z m -76.385,10.5821 c 0,-0.4415 -2.2885,-1.6252 -5.0855,-2.6304 -5.4958,-1.9752 -12.0136,-1.7585 -17.4333,0.5798 -2.9176,1.2588 -2.8043,1.3125 4.0033,1.8977 11.1632,0.9597 18.5155,1.0204 18.5155,0.1529 z m -56.0871,-8.1454 c 13.7449,-3.5171 16.5078,-4.5881 14.0519,-5.4461 -9.2903,-3.2462 -98.8842,-28.6187 -101.0565,-28.6187 -1.1217,0 -15.8863,3.7871 -32.8103,8.4158 -51.4848,14.0812 -61.2964,16.901 -61.2964,17.6162 0,0.8759 5.5924,1.3858 49.5414,4.5175 19.8166,1.412 50.4422,3.6374 68.057,4.9454 39.567,2.9381 47.1058,2.7684 63.5129,-1.4301 z m 209.2152,-29.5517 c 36.1644,-16.3852 38.4162,-17.4663 37.7552,-18.1269 -0.2545,-0.2544 -12.4369,2.5309 -27.0721,6.1893 l -26.6093,6.6517 -8.8009,7.486 c -10.5782,8.9979 -16.3072,14.4295 -16.3072,15.4608 0,0.9228 0.3534,0.7707 41.0343,-17.6609 z m -166.7781,11.2416 c 2.7558,-4.3338 18.0257,-30.9427 31.9395,-55.6568 l 3.0354,-5.3917 -3.6386,0.6822 c -4.7577,0.8921 -130.9968,35.6252 -132.2156,36.3774 -1.4722,0.9088 -2.5615,0.5736 86.5059,26.6154 4.6789,1.368 9.0757,2.5183 9.7705,2.5562 0.695,0.038 2.7663,-2.2943 4.6029,-5.1827 z m -228.9762,-14.3037 c 31.0475,-16.3465 36.0586,-19.2846 34.8173,-20.4148 -0.803,-0.7311 -60.9999,-18.0753 -62.6673,-18.056 -0.4129,0 -0.7507,11.9373 -0.7507,26.5166 0,14.5794 0.2156,26.508 0.479,26.508 0.2634,0 12.9182,-6.5492 28.1217,-14.5538 z m 314.1861,-0.3589 c 17.0642,-4.4157 37.4393,-9.7916 45.2777,-11.9464 l 14.252,-3.9178 8.7673,-7.336 c 4.8221,-4.0347 27.4487,-23.3302 50.2814,-42.8789 22.8327,-19.5488 42.1982,-36.0691 43.0344,-36.7117 3.0556,-2.3486 -0.048,-2.5067 -7.1806,-0.3661 -4.02,1.2065 -12.4885,5.134 -18.8188,8.7278 -27.1182,15.3952 -170.1423,101.5159 -170.1423,102.4496 0,0.5639 0.7881,0.7964 1.7514,0.5166 0.9634,-0.2797 15.7132,-4.1215 32.7775,-8.5371 z m 16.2636,-39.3062 c 41.4221,-24.8099 75.313,-45.4584 75.313,-45.8856 0,-0.8925 -6.8075,0.8933 -72.6945,19.0704 l -48.1741,13.2904 -16.6301,29.3392 c -9.1467,16.1364 -16.6303,29.6264 -16.6303,29.9776 0,0.3512 0.7882,0.3412 1.7515,-0.022 0.9633,-0.3635 35.6423,-20.9598 77.0645,-45.7699 z m -274.2294,34.9694 c 8.3945,-2.3226 15.2627,-4.5509 15.2627,-4.9517 0,-0.7442 -9.3535,-3.8072 -11.6259,-3.8072 -1.4581,0 -23.4191,11.6542 -24.9046,13.2163 -1.4312,1.505 3.309,0.5115 21.2678,-4.4574 z m 65.766,-18.3433 c 37.2626,-9.8803 143.2454,-39.3119 148.1822,-41.1507 l 4.7813,-1.7807 13.6895,-24.0072 c 23.4461,-41.1172 33.1358,-58.7682 32.5712,-59.3326 -0.7746,-0.7742 2.4599,-2.4278 -111.4052,56.9547 -131.1692,68.4069 -132.457,69.0891 -131.7572,69.8034 1.0837,1.1058 15.9278,4.9435 19.4177,5.0202 1.9051,0.042 12.9393,-2.4364 24.5205,-5.5071 z m 342.2839,-16.567 c 29.7477,-7.7812 54.2571,-14.2909 54.4654,-14.4659 0.8893,-0.7477 -13.7752,-53.4109 -14.8728,-53.4109 -0.4119,0 -2.0483,1.0069 -3.6362,2.2374 -5.1895,4.0215 -92.4623,78.9329 -92.4623,79.3658 0,0.9646 4.7997,-0.2013 56.5059,-13.7264 z m -383.8803,-2.5303 c 44.6322,-22.9801 255.7001,-133.4421 256.935,-134.4665 1.0447,-0.8666 9.3087,-15.0645 18.9781,-32.6054 1.5755,-2.8579 2.5349,-5.5256 2.1321,-5.9283 -0.9732,-0.9727 -8.2635,2.2078 -173.2625,75.5859 -168.077,74.7471 -199.7616,89.0565 -199.7616,90.2165 0,0.478 0.1262,0.869 0.2804,0.869 0.1541,0 15.1291,4.2535 33.2778,9.4524 18.1486,5.1989 33.8529,9.4752 34.8985,9.5029 1.0456,0.028 12.9806,-5.6542 26.5222,-12.6265 z m 41.3301,-85.7613 c 190.3959,-84.6397 181.2139,-80.4847 178.0662,-80.5756 -1.4511,-0.042 -98.0822,16.5704 -242.8153,41.7432 l -85.0712,14.7961 -0.2604,45.2324 c -0.1432,24.8779 -0.055,45.2325 0.1951,45.2325 0.2504,0 67.6989,-29.8929 149.8856,-66.4286 z m 257.6963,34.0859 77.2403,-21.3299 20.6958,-12.3651 c 11.3827,-6.8008 20.8728,-12.8424 21.0892,-13.4258 0.6633,-1.7879 -2.3345,-32.7087 -3.2481,-33.5035 -1.1815,-1.0282 -67.6715,-30.3335 -68.9137,-30.3737 -0.872,-0.028 -61.1119,31.1835 -73.6818,38.1763 -4.4772,2.4907 -5.4466,4.0154 -30.5255,48.0183 -14.2459,24.9952 -26.0719,45.8887 -26.2803,46.4298 -0.6089,1.5821 2.3801,0.8091 83.6241,-21.6264 z m 209.1883,-27.4253 c 55.2642,-57.4065 55.1355,-57.2672 52.9017,-57.2672 -1.3558,0 -61.9766,15.496 -68.8107,17.5895 -1.3905,0.4259 -18.1354,12.6281 -21.1223,15.3918 -0.8425,0.7797 -10.6572,64.4464 -10.683,69.2994 -0.01,1.513 0.3785,2.7509 0.8589,2.7509 0.4804,0 21.5654,-21.494 46.8554,-47.7644 z m -57.2795,12.6845 c 2.7145,-17.6796 3.0445,-21.9373 1.7008,-21.9373 -1.7528,0 -15.1695,10.116 -15.1695,11.4376 0,1.6093 7.9405,29.615 8.7969,31.0259 0.9428,1.5536 1.9844,-3.0225 4.6718,-20.5262 z m -10.9487,-44.5744 c 4.135,-2.7297 6.4876,-5.1295 6.4876,-6.6178 0,-1.0346 -10.3876,-5.7556 -12.6641,-5.7556 -1.2558,0 -1.4639,0.6692 -0.9723,3.126 0.3441,1.7193 0.6255,5.0953 0.6255,7.5022 0,5.1829 0.9366,5.4335 6.5233,1.7452 z m 29.4981,-37.1308 c 11.4829,-15.8477 13.7661,-19.8969 42.1631,-74.7724 49.62,-95.8882 66.1418,-128.5386 65.0434,-128.5386 -0.5741,0 -6.3504,5.0447 -12.8362,11.2105 -18.8946,17.9623 -94.9418,91.4941 -117.3342,113.4534 l -20.5297,20.1324 2.3043,30.3828 c 1.2672,16.7104 2.5387,31.3628 2.8254,32.5607 0.3124,1.3051 1.9896,2.7943 4.1842,3.7152 12.9327,5.4268 20.7682,8.5796 21.3583,8.5942 0.3746,0.01 6.1443,-7.5229 12.8214,-16.7382 z m -420.3429,-5.6922 c 64.6791,-11.2219 133.8119,-23.1724 153.6285,-26.5567 36.9231,-6.3059 39.1397,-6.7393 38.3745,-7.504 -0.4683,-0.4681 -47.2852,-4.4691 -140.5928,-12.0151 l -56.1798,-4.5435 -58.4158,35.0319 c -32.1286,19.2676 -58.5725,35.5021 -58.7642,36.0767 -0.2093,0.6276 0.59,0.8191 2.0014,0.4795 1.2924,-0.311 55.2691,-9.7469 119.9482,-20.9688 z m -136.9706,3.7704 c 35.4266,-26.8378 74.9187,-57.5543 74.9187,-58.2708 0,-0.3889 -21.6184,-2.4781 -48.0409,-4.6426 l -48.0409,-3.9354 7e-4,40.7622 c 4e-4,23.2858 0.3843,40.7622 0.8955,40.7622 0.4921,0 9.6122,-6.6041 20.2669,-14.6756 z m 639.438,1.6758 c 16.1238,-4.399 30.2892,-8.6356 31.4786,-9.4145 2.609,-1.7086 51.4015,-51.8323 58.0272,-59.6103 4.9904,-5.8584 15.535,-22.7386 15.535,-24.8691 0,-1.7098 2.6177,-3.6278 -69.6441,51.0318 -56.7011,42.8894 -66.9215,50.8604 -65.2133,50.8604 0.2754,0 13.6929,-3.5993 29.8166,-7.9983 z m -252.4568,-7.6679 c 16.9812,-8.9033 26.2205,-14.263 26.2205,-15.2104 0,-1.1919 -21.7791,-10.4429 -23.2393,-9.8712 -1.0998,0.4306 -5.9316,8.4348 -16.4973,27.3287 -3.4178,6.1118 -1.9662,5.8705 13.5161,-2.2471 z m 114.2941,0.04 c 0,-5.1253 -2.8576,-39.579 -3.3212,-40.0424 -0.2594,-0.2592 -29.2318,14.4107 -38.1723,19.3281 -3.8305,2.1069 -6.9143,4.2676 -6.8531,4.8017 0.1112,0.9696 44.7264,21.2911 47.0956,21.4512 0.8625,0.058 1.251,-1.6619 1.251,-5.5386 z m 164.5668,-77.795 c 124.5076,-118.3374 154.1747,-146.7173 154.5865,-147.8788 0.4288,-1.2096 -73.0131,-0.4725 -76.2051,0.7649 -0.966,0.3744 -23.2333,30.2282 -49.4826,66.3416 -112.2222,154.3937 -114.3994,157.4379 -114.3994,159.9568 0,2.0861 -0.2892,2.3539 85.5006,-79.1844 z m -7.7374,37.1542 c 26.908,-20.4936 62.5059,-47.6143 79.1063,-60.2681 l 30.1825,-23.0069 17.7734,-30.5091 c 9.7754,-16.7801 18.4401,-31.5712 19.255,-32.8692 3.8373,-6.1127 -3.7285,0.3176 -34.5498,29.3644 -98.1955,92.5425 -161.5072,152.7535 -161.5072,153.5975 0,0.524 0.1836,0.9527 0.4081,0.9527 0.2244,0 22.4236,-16.7675 49.3317,-37.2612 z m -215.453,11.4091 c 8.2979,-4.4409 9.4633,-6.2195 3.5562,-5.4276 -12.2973,1.6485 -23.3756,3.9036 -23.6813,4.8205 -0.5485,1.6445 7.8426,5.447 10.6918,4.8451 1.3762,-0.2908 5.6212,-2.1978 9.4333,-4.238 z m -353.3772,-10.3505 c 15.121,-8.9779 16.8719,-10.2794 14.6685,-10.9036 -5.2309,-1.4818 -6.8353,-0.7334 -19.8178,9.2431 -11.6408,8.9454 -14.7372,11.8553 -12.6156,11.8553 0.3269,0 8.3211,-4.5877 17.7649,-10.1948 z m 276.7147,-7.5605 c -8.5343,-10.0654 -67.3289,-75.8519 -73.7576,-82.5289 l -8.4313,-8.7567 -6.6089,3.6882 c -10.7202,5.9826 -99.8433,59.4612 -110.1813,66.1147 -5.7215,3.6823 -8.9027,6.2861 -8.0067,6.5532 0.8178,0.2437 41.7956,3.7049 91.0618,7.6916 49.2662,3.9867 92.9528,7.5771 97.0812,7.9786 4.1285,0.4015 10.3909,0.7929 13.9167,0.8699 6.0096,0.1312 6.3175,0.03 4.9261,-1.6106 z m 94.5771,-6.8381 c 16.968,-2.9786 31.2674,-5.4156 31.7766,-5.4156 1.5811,0 1.0829,-1.8106 -4.1573,-15.1088 -2.7956,-7.0949 -5.6363,-12.8996 -6.3126,-12.8996 -1.3889,0 -58.3414,36.3371 -60.6646,38.7056 -1.9031,1.9401 -1.3864,1.8708 39.3579,-5.2816 z m -59.1424,-18.9196 c 34.1307,-53.4231 52.8121,-83.3417 52.8121,-84.5794 0,-2.4374 -24.104,-65.3829 -25.616,-66.894 -0.257,-0.2569 -1.9172,0.3649 -3.6893,1.3817 -13.5792,7.7923 -124.5943,74.096 -125.5869,75.0067 -1.4367,1.3182 3.9893,7.6585 55.1319,64.4228 25.5663,28.3765 31.1736,34.1179 32.2386,33.0099 0.7091,-0.7379 7.3284,-10.7943 14.7096,-22.3477 z m 42.4068,-8.6033 c 15.6461,-9.9583 29.357,-18.8485 30.4687,-19.756 l 2.0213,-1.6498 -2.4166,-7.0021 c -3.1643,-9.1688 -10.6265,-27.8144 -11.4911,-28.7121 -0.3728,-0.387 -4.4674,5.2397 -9.0992,12.5038 -24.3883,38.2486 -39.1113,61.6454 -39.1113,62.1532 0,0.313 0.2656,0.5691 0.5904,0.5691 0.3247,0 13.3917,-8.1477 29.0378,-18.1061 z m -293.7905,5.2521 c 19.3304,-11.1999 123.0818,-72.9453 123.9505,-73.7662 0.2232,-0.211 -2.4478,-3.6521 -5.9357,-7.6469 -3.4879,-3.9949 -6.6308,-7.6113 -6.9842,-8.0364 -0.3534,-0.4251 -5.8831,1.0331 -12.2883,3.2405 l -11.6457,4.0135 -40.8254,31.1914 c -55.2402,42.2047 -70.0519,53.5651 -75.3336,57.7799 l -4.4831,3.5775 3.4823,0.6185 c 8.3211,1.4781 9.0098,1.2267 30.0632,-10.9718 z m -12.416,-23.3109 c 45.6507,-35.0579 51.7058,-39.8756 51.0017,-40.5793 -0.2576,-0.2575 -8.7202,2.4607 -18.8057,6.0405 -46.5125,16.5089 -161.6084,57.9805 -162.9044,58.698 -0.9128,0.5054 0.935,1.0549 5.0042,1.4883 10.8759,1.1586 74.2148,6.2807 79.1653,6.4021 4.6299,0.1134 4.9001,-0.073 46.5389,-32.0496 z m 382.5277,3.0808 c 6.7839,-12.1446 12.1062,-22.309 11.8272,-22.5878 -0.7313,-0.7309 -3.4501,0.8592 -19.4268,11.3623 -9.7495,6.4092 -14.2795,9.968 -14.2795,11.218 0,3.3938 7.543,22.0883 8.9124,22.0883 0.3478,0 6.1828,-9.9364 12.9667,-22.0808 z m -518.4371,-4.1293 c 49.8269,-34.9806 80.5163,-57.2128 79.4617,-57.5641 -1.3328,-0.4441 -100.3593,10.6482 -101.5326,11.3731 -0.9248,0.5711 -1.1206,61.3978 -0.1978,61.3978 0.3343,0 10.3552,-6.8431 22.2687,-15.2068 z m 63.4447,-10.3924 c 68.1825,-24.3404 149.8722,-53.9759 158.8839,-57.6402 4.1285,-1.6787 8.6323,-4.1505 10.0084,-5.4931 l 2.5021,-2.441 -4.5038,0.5972 c -2.477,0.3284 -30.3612,3.5086 -61.9647,7.0668 -37.1921,4.1877 -58.1978,6.9549 -59.5498,7.8451 -13.8477,9.1173 -95.2521,65.9611 -95.5003,66.6868 -0.1836,0.5364 -0.071,0.9752 0.2492,0.9752 0.3206,0 22.7644,-7.9186 49.875,-17.5968 z m 596.0264,-23.9156 c 47.6541,-65.5398 64.277,-88.7163 64.277,-89.6179 0,-1.0072 -23.9116,-1.272 -26.4641,-0.293 -0.8837,0.3389 -3.337,3.6024 -5.4516,7.2522 -8.8093,15.2041 -63.1807,120.6501 -63.1232,122.4191 0.067,2.06 4.8407,-4.1101 30.7619,-39.7604 z m -98.251,15.3157 c 35.7328,-34.3844 55.5516,-54.0475 55.0156,-54.5832 -0.555,-0.5547 -16.7373,9.3978 -41.1119,25.2848 l -14.0118,9.1327 -10.2585,18.5401 c -5.6423,10.1972 -10.2586,18.8282 -10.2586,19.1801 0,1.9137 3.4091,-0.9879 20.6252,-17.5545 z m -52.3386,-4.7361 c 9.4607,-6.0098 22.1554,-14.2248 28.2104,-18.2555 10.9522,-7.2907 11.037,-7.3778 16.3601,-16.8314 29.8326,-52.981 102.8094,-184.1174 103.5525,-186.0793 1.0507,-2.7744 -2.6349,-21.4449 -4.4553,-22.5695 -1.0665,-0.6588 -13.7824,7.1614 -52.4045,32.228 l -25.0209,16.2392 -23.8667,37.1558 c -47.1893,73.4651 -78.7192,123.9062 -78.7192,125.9342 0,1.136 2.6565,8.7112 5.9033,16.8337 8.3188,20.8115 10.8378,26.2717 12.12,26.2717 0.6155,0 8.8597,-4.9171 18.3203,-10.9269 z m 318.3855,-46.834 c 10.4215,-8.1185 19.3597,-15.4425 19.8628,-16.2755 1.0432,-1.7277 -8.0999,-28.1505 -9.7687,-28.2308 -1.2154,-0.059 -4.945,6.009 -23.1833,37.7151 -7.9013,13.7362 -14.3661,25.5802 -14.3661,26.3201 0,1.6628 2.8999,-0.3999 27.4553,-19.5289 z m -497.3484,-13.2646 c 44.1622,-26.5437 47.9497,-28.9282 47.176,-29.7016 -0.2634,-0.2633 -18.865,5.0575 -41.3367,11.8239 l -40.8576,12.3027 -10.5143,7.357 c -5.7828,4.0463 -10.5142,7.9758 -10.5142,8.7322 0,1.9986 11.6437,15.6605 12.927,15.1676 0.5966,-0.2292 20.0005,-11.786 43.1198,-25.6818 z m -277.5822,14.9684 c 18.9084,-2.2228 39.0944,-4.7318 44.8581,-5.5754 l 10.4792,-1.534 24.5501,-17.3303 c 13.5025,-9.5315 27.6702,-19.6098 31.4838,-22.396 7.0813,-5.1737 7.0894,-5.2002 2.0217,-6.6287 -2.0965,-0.591 -19.4429,1.5704 -23.1604,2.8858 -6.8671,2.4298 -125.8881,52.8567 -126.8631,53.7495 -1.4016,1.2833 -0.8609,1.2365 36.6306,-3.1709 z m -41.1068,-10.5345 c 61.9552,-26.7444 78.5364,-34.2239 77.7076,-35.0522 -0.5832,-0.5829 -93.1219,8.2358 -107.5601,10.2502 l -4.2536,0.5934 v 18.8921 c 0,15.0354 0.2713,18.8922 1.3286,18.8922 0.7308,0 15.4807,-6.1091 32.7775,-13.5757 z m 617.5775,-21.1848 c 26.4106,-16.9175 49.3267,-31.8845 50.9248,-33.2599 l 2.9056,-2.5008 -8.9355,-40.012 c -4.9145,-22.0066 -9.3197,-40.8801 -9.7893,-41.941 -0.737,-1.665 -1.343,-1.1173 -4.4281,4.0012 -7.0925,11.7673 -74.0907,131.0826 -78.7369,140.2205 -1.2454,2.4491 -1.6951,4.2513 -1.0608,4.2513 0.6055,0 22.7095,-13.8417 49.1202,-30.7593 z m -139.4839,-12.5037 c 35.7261,-55.6344 53.4845,-83.8975 53.012,-84.3698 -0.4418,-0.4416 -18.7311,10.9999 -69.5471,43.5074 -21.5074,13.7586 -30.2753,19.8947 -30.2753,21.1877 0,4.0429 20.8053,56.9359 22.3956,56.9359 0.268,0 11.2547,-16.7676 24.4148,-37.2612 z m -305.0264,28.7171 c 21.1928,-2.4634 40.9129,-4.7636 43.8227,-5.1115 3.1425,-0.3757 5.1637,-1.0826 4.9783,-1.741 -0.593,-2.1064 -38.6349,-19.8325 -45.5127,-21.2073 -2.3879,-0.4774 -6.2451,1.7971 -26.3102,15.5141 -12.9316,8.8404 -23.6621,16.5233 -23.8455,17.0731 -0.2051,0.615 1.3339,0.798 4.001,0.4756 2.3838,-0.2882 21.6737,-2.5395 42.8664,-5.003 z m 81.4423,-25.2161 c 6.4416,-12.8494 36.519,-74.9986 61.3285,-126.7234 7.3716,-15.3691 13.2597,-28.3732 13.0847,-28.8981 -0.3566,-1.0691 -127.1679,128.8818 -127.6188,130.7782 -0.1579,0.6642 6.2691,7.6266 14.2822,15.4717 12.8575,12.5883 15.537,14.7226 22.806,18.1673 4.5302,2.1467 8.5712,3.9155 8.9801,3.9307 0.4089,0.015 3.6207,-5.7118 7.1373,-12.7264 z m 29.1682,3.0726 c 12.8775,-8.6567 120.5133,-84.1928 127.5888,-89.5386 l 8.5071,-6.4276 1.2189,-7.9445 c 0.6705,-4.3695 3.0349,-22.3488 5.2542,-39.9541 2.2195,-17.6053 4.281,-33.4726 4.5812,-35.2606 0.3004,-1.7881 0.1173,-3.251 -0.4066,-3.251 -1.1934,0 -116.2909,138.0065 -142.0664,170.3433 -12.1878,15.2902 -13.1305,17.7157 -4.6772,12.0331 z m 76.6791,-20.8724 c 17.8168,-5.251 36.747,-10.8852 42.0672,-12.5205 l 9.673,-2.9731 0.6095,-3.7344 c 1.3396,-8.2088 4.521,-34.6211 4.2078,-34.934 -0.4496,-0.4493 -12.6148,7.8429 -54.1535,36.9125 -30.0554,21.0335 -37.6401,26.7969 -35.2648,26.7969 0.2566,0 15.044,-4.2963 32.8608,-9.5474 z m 512.8273,-33.7156 c 21.9221,-46.9949 39.5018,-85.3895 39.5018,-86.273 0,-2.2124 -5.4341,5.5297 -31.1734,44.4131 l -28.8683,43.6104 v 19.2558 c 0,10.5907 0.3932,19.2558 0.8791,19.2558 0.4859,0 9.3351,-18.118 19.665,-40.2621 z m -35.561,29.7589 c 0,-1.3754 -0.4504,-2.5007 -1.0008,-2.5007 -0.5505,0 -1.0008,1.1253 -1.0008,2.5007 0,1.3754 0.4503,2.5008 1.0008,2.5008 0.5504,0 1.0008,-1.1254 1.0008,-2.5008 z m -123.2163,-8.5025 h 10.6457 l 4.9188,-6.7521 c 28.0021,-38.4385 53.6066,-74.4607 53.6066,-75.4178 0,-1.3332 0,-1.3286 -49.7916,46.5555 -19.9542,19.1915 -36.2804,35.3373 -36.2804,35.8792 0,0.5703 1.3178,0.7221 3.1276,0.3603 1.7203,-0.3438 7.9182,-0.6251 13.7733,-0.6251 z m 89.7133,-1.627 18.0401,-0.5728 7.2829,-34.1607 7.2828,-34.1607 -0.052,-28.7587 c -0.031,-17.1407 -0.4299,-28.7586 -0.9878,-28.7586 -1.1804,0 -91.4833,123.1587 -92.7808,126.538 -0.5736,1.4939 10.9238,1.4702 61.2146,-0.1265 z m -586.7835,-30.1326 c 35.2367,-36.8572 38.365,-40.2621 36.9921,-40.2621 -1.9847,0 -86.2657,68.4926 -86.2657,70.1055 0,0.5037 4.4701,0.9159 9.9333,0.9159 h 9.9335 z m 93.9794,-3.251 c 42.0327,-61.6717 85.1428,-126.1664 84.6574,-126.6516 -0.6437,-0.6433 -30.7183,1.6694 -33.0859,2.5443 -1.2305,0.4547 -13.9031,25.9724 -38.2598,77.0403 -20.0309,41.9982 -36.7022,77.2499 -37.0474,78.337 -1.6735,5.27 3.2745,-1.2486 23.7357,-31.27 z m 385.6302,13.7542 c 5.6173,-5.6392 31.7836,-33.4351 58.1472,-61.7686 26.3634,-28.3335 50.3849,-54.107 53.381,-57.2746 2.9961,-3.1675 5.2078,-5.9986 4.915,-6.2913 -0.6233,-0.6229 -51.8663,-7.7898 -89.6217,-12.5345 -16.3098,-2.0496 -26.6181,-2.9462 -27.1672,-2.3629 -0.4867,0.517 -8.1402,13.9968 -17.008,29.9551 l -16.1231,29.0149 10.1807,45.7575 c 7.7032,34.623 10.5336,45.7574 11.6315,45.7574 0.7981,0 6.0471,-4.6138 11.6646,-10.253 z m -225.4417,-18.0637 c 21.0894,-13.4344 48.192,-30.7341 60.2278,-38.4437 l 21.8834,-14.0176 23.4045,-36.6511 c 12.8725,-20.1581 23.4045,-36.8685 23.4045,-37.1343 0,-1.0566 -5.2707,-0.3967 -7.9687,0.9977 -2.6376,1.3633 -36.558,24.873 -123.141,85.3474 -18.4404,12.8798 -33.5954,23.4824 -33.6777,23.5614 -0.3599,0.345 -5.3549,37.0224 -5.3549,39.3197 0,1.8068 0.4194,2.3895 1.4388,1.9985 0.7913,-0.3034 18.6937,-11.5435 39.7833,-24.978 z m 396.311,-26.1234 c 47.8156,-69.5654 70.8922,-103.619 70.8922,-104.6137 0,-0.621 -0.7882,-0.8805 -1.7515,-0.5766 -0.9633,0.3038 -12.7857,3.7266 -26.272,7.6061 -13.4862,3.8796 -28.8761,8.3961 -34.1997,10.0368 l -9.6793,2.983 -1.1509,5.233 c -0.6331,2.8782 -4.0464,19.3194 -7.5853,36.5361 -6.3822,31.0503 -6.4342,31.436 -6.4342,47.7643 0,9.0537 0.3378,16.4446 0.7507,16.4244 0.4128,-0.02 7.3563,-9.6473 15.43,-21.3934 z m -387.7098,-38.2237 c 33.334,-23.1814 77.36,-54.3089 84.7162,-59.8968 1.0607,-0.8057 1.5867,-1.8072 1.1686,-2.2255 -1.2811,-1.282 -82.7943,-1.5346 -100.1337,-0.3103 -8.7827,0.6202 -16.1608,1.3196 -16.3956,1.5543 -0.4261,0.4259 -11.0887,83.4546 -11.1433,86.7721 -0.016,0.9628 0.4358,1.7505 1.0036,1.7505 0.5679,0 18.9208,-12.4399 40.7842,-27.6443 z m 121.7312,-19.0689 c 24.2564,-15.318 35.6188,-23.3179 35.6193,-25.078 3e-4,-0.952 -0.7875,-5.2358 -1.7506,-9.5196 l -1.751,-7.7887 -7.9459,0.2865 -7.9457,0.2865 -14.3746,22.5067 c -7.906,12.3787 -15.0727,23.8103 -15.9261,25.4034 -1.4485,2.704 -1.4344,2.8517 0.2119,2.2203 0.9699,-0.372 7.2081,-4.1146 13.8627,-8.3171 z m 58.3924,-7.5531 c 1.9325,-2.4153 7.4934,-13.8457 6.9839,-14.355 -0.3846,-0.3845 -7.6689,3.5027 -11.5373,6.1568 -0.6062,0.4158 2.0646,9.4486 2.7937,9.4486 0.4176,0 1.2096,-0.5627 1.7597,-1.2504 z m -0.7419,-29.5088 5.4913,-3.7511 -6.874,-0.2985 c -3.7807,-0.1642 -7.1001,-0.073 -7.3762,0.2034 -0.9562,0.9557 0.8348,7.5973 2.0487,7.5973 0.6705,0 3.6901,-1.688 6.7102,-3.7511 z m 179.5428,-13.3915 c 6.9325,-7.2279 12.6046,-13.5186 12.6046,-13.9792 0,-0.4608 -1.2385,-0.6223 -2.7523,-0.3589 -1.5137,0.2632 -24.3703,3.4172 -50.7924,7.0086 -55.2473,7.5094 -54.9658,7.4651 -53.8698,8.488 0.454,0.4237 15.913,3.0509 34.3534,5.8381 18.4405,2.7872 34.654,5.2487 36.0302,5.47 1.3761,0.2213 4.5989,0.4636 7.1619,0.5386 l 4.6597,0.1362 z m 56.6415,2.7574 c 12.3853,-3.5552 23.87,-7.0128 25.5213,-7.6837 l 3.0025,-1.2199 -3.5029,-0.7903 c -8.2722,-1.8665 -45.5132,-6.8494 -46.1315,-6.1725 -0.6897,0.7549 -4.9112,19.7522 -4.9112,22.1006 0,0.7565 0.7193,1.0673 1.7515,0.7567 0.9633,-0.2899 11.8849,-3.4358 24.2703,-6.9909 z M 2049.668,951.84687 c 0,-0.45641 -2.4575,-3.54408 -5.4612,-6.86149 l -5.4613,-6.03166 -40.327,0.47359 c -22.1799,0.26049 -40.7549,0.87241 -41.2779,1.35985 -0.5843,0.54475 -0.3916,0.90415 0.5005,0.93272 0.7981,0.0255 20.1418,2.45099 42.9859,5.38985 43.196,5.5571 49.041,6.12171 49.041,4.73714 z m 59.8229,-2.18783 c 23.3257,-2.38335 50.3896,-5.7719 51.004,-6.38595 0.7691,-0.76866 -9.6318,-1.49909 -36.7649,-2.58192 -14.5872,-0.58214 -29.7566,-1.32449 -33.7097,-1.64966 l -7.1876,-0.59122 -1.0139,3.86224 c -2.6952,10.26675 -2.9644,9.36388 2.7929,9.36388 2.8245,0 14.0202,-0.90781 24.8792,-2.01737 z m -216.9543,-1.04606 c -5.9078,-1.10065 -53.46,-5.94834 -58.2988,-5.94323 -2.9115,0.003 -3.7497,0.39649 -3.7378,1.75448 0.032,3.65936 1.4008,4.17166 12.0307,4.50311 22.986,0.71671 54.4776,0.51875 50.0059,-0.31436 z m -105.5883,-4.52142 c -12.8934,-8.11896 -12.408,-8.01575 -60.5507,-12.8737 l -33.528,-3.38322 -7.2561,7.57962 c -3.9908,4.16879 -7.2561,7.95772 -7.2561,8.41984 0,0.46211 5.0668,0.90225 11.2595,0.97808 6.1926,0.0758 20.4921,0.44262 31.7765,0.8151 11.2845,0.37249 31.5514,0.74654 45.0377,0.83122 l 24.5205,0.15397 z m -109.6205,-22.04178 c 0.034,-1.31941 -42.8208,-29.91075 -43.6261,-29.1059 -0.3024,0.30219 6.1279,10.76294 14.2894,23.24611 l 14.8394,22.69666 7.2342,-7.8594 c 3.9788,-4.32267 7.2473,-8.36253 7.2631,-8.97747 z m 538.4792,9.10518 c 0,-1.63759 -32.5064,-48.73065 -32.769,-47.47353 -0.1753,0.83924 2.5488,11.64248 6.0538,24.0072 6.2574,22.07513 6.4253,22.49274 9.2878,23.1132 3.5991,0.78009 17.4274,1.06029 17.4274,0.35313 z m -47.0393,-2.41348 c 0,-1.04021 -83.8041,-105.44474 -84.9909,-105.883 -0.7939,-0.29318 -2.0775,50.971 -2.0803,83.08558 0,14.16892 0.3059,18.87691 1.2494,19.15267 1.1045,0.32282 14.8054,1.04894 67.3063,3.56712 7.7064,0.36963 15.0251,0.74718 16.2636,0.839 1.2385,0.0918 2.2519,-0.25079 2.2519,-0.76137 z m -171.3638,-3.73635 c 14.4659,-0.36266 26.1757,-1.01394 26.0218,-1.44729 -0.1539,-0.43335 -26.1765,-28.34076 -57.828,-62.01646 l -57.5481,-61.22855 -66.0553,-56.61955 c -36.3304,-31.14075 -73.4864,-62.88257 -82.569,-70.53738 -9.0826,-7.65481 -17.3048,-14.5864 -18.2714,-15.40354 -0.9667,-0.81714 -1.9417,-1.30091 -2.1668,-1.07505 -0.5069,0.50861 4.4105,16.42931 23.4529,75.93333 l 14.8852,46.51397 33.117,67.4661 c 18.2144,37.10635 34.2902,70.07875 35.724,73.272 l 2.6069,5.80589 61.1647,-0.002 c 33.6405,-10e-4 73.0002,-0.29877 87.4661,-0.66142 z m -192.8335,-10.21207 -2.0757,-6.83016 -16.7807,-13.8156 c -20.8426,-17.15963 -19.2829,-15.97935 -19.2829,-14.59252 0,2.60518 39.2292,45.02439 39.8678,43.1097 0.1909,-0.57269 -0.5868,-4.11483 -1.7285,-7.87142 z m -21.7791,4.62523 c -0.9983,-1.61433 -79.7512,-88.99972 -88.7976,-98.53115 -3.7857,-3.98869 -7.3296,-7.25217 -7.8752,-7.25217 -1.2179,0 -0.5265,8.74286 3.0756,38.89049 l 2.6746,22.38554 26.992,15.4987 c 48.1194,27.62995 53.2753,30.2574 59.3756,30.2574 4.0033,0 5.1353,-0.31034 4.555,-1.24881 z m 396.5817,-1.50202 c -0.2962,-0.96279 -3.0485,-10.30309 -6.1162,-20.75623 -3.0677,-10.45314 -8.0683,-27.10814 -11.1124,-37.01111 l -5.5348,-18.0054 -36.2063,-54.43757 -36.2064,-54.43756 -0.6516,5.42285 c -0.3584,2.98256 -0.6839,18.47676 -0.7232,34.43155 l -0.072,29.00871 25.0688,31.00931 c 56.2191,69.54161 70.178,86.52598 71.1124,86.52598 0.539,0 0.7377,-0.78774 0.4413,-1.75053 z m -441.9662,-1.6376 c 0,-0.54312 -41.5358,-23.61998 -42.5134,-23.61998 -0.9444,0 0.129,11.87872 1.5592,17.25518 0.831,3.12365 1.4519,3.76804 3.7116,3.85226 1.4925,0.0556 7.8931,0.66655 14.2234,1.35763 11.7631,1.28418 23.0192,1.84891 23.0192,1.15491 z m 330.5484,-64.16733 0.5236,-49.0499 -29.0077,-35.97563 c -44.1484,-54.75359 -70.3898,-86.77653 -72.9244,-88.99153 l -2.2892,-2.00061 0.7283,2.00061 c 2.494,6.85087 26.6138,68.23251 50.9799,129.73709 l 28.413,71.71968 10.9015,14.59542 10.9017,14.59542 0.6249,-3.79033 c 0.3437,-2.08467 0.8605,-25.86277 1.1484,-52.84022 z m -386.942,47.29938 c -0.3158,-2.3382 -0.8676,-6.82609 -1.2262,-9.97308 -0.3585,-3.14698 -1.1646,-6.13369 -1.7914,-6.63711 -1.1333,-0.91038 -32.2732,-18.57419 -63.5755,-36.06261 -9.0188,-5.03869 -16.6243,-8.93474 -16.9014,-8.65788 -0.2769,0.27685 1.9226,4.40465 4.8881,9.17288 l 5.3916,8.66952 35.8479,23.86978 c 19.7164,13.12837 36.3189,23.86977 36.8945,23.86977 0.6539,0 0.8311,-1.59448 0.4724,-4.25127 z m 137.0286,-1.61995 c -0.855,-1.65253 -2.0738,-3.32537 -2.7085,-3.71739 -1.5937,-0.98446 -0.2907,4.00223 1.9315,7.39198 2.3094,3.5226 2.9451,0.51586 0.777,-3.67459 z m -206.7404,-10.54993 c 0,-0.77916 -2.26,-4.79379 -5.0222,-8.92141 -4.1146,-6.14842 -6.555,-8.54538 -13.5031,-13.26258 -4.6646,-3.16679 -8.8007,-5.43828 -9.1914,-5.04777 -0.5537,0.55334 26.3691,28.64841 27.453,28.64841 0.1451,0 0.2637,-0.63749 0.2637,-1.41665 z m 181.0893,-9.83673 c -0.4959,-1.78804 -7.1026,-22.677 -14.6816,-46.41991 l -13.7801,-43.16893 -39.533,-80.60394 c -21.7432,-44.33217 -39.8709,-80.61037 -40.2837,-80.61823 -0.4129,-0.008 -0.7507,36.57801 -0.7507,81.30191 v 81.3162 l 4.2536,4.06496 c 9.3892,8.97296 103.4266,87.37892 104.7993,87.37892 0.4985,0 0.4882,-1.40504 -0.024,-3.25098 z m 227.2522,-4.70151 c 0,-0.52271 -43.9346,-59.60294 -97.6325,-131.28942 l -97.6325,-130.33903 -9.7073,-2.62768 c -31.114,-8.42234 -84.4909,-21.97268 -85.3831,-21.67545 -1.0358,0.34512 27.8818,31.41052 130.7794,140.49275 l 52.9869,56.17159 47.5515,40.85754 c 59.8197,51.39852 57.3956,49.34596 58.287,49.35362 0.4128,0.004 0.7506,-0.4212 0.7506,-0.94392 z m 169.7223,-10.42729 c -5.1006,-12.31507 -30.5565,-70.598 -32.3852,-74.148 -0.8502,-1.6505 -1.7141,-2.50393 -1.9197,-1.89653 -0.418,1.23527 13.3337,49.77591 14.9901,52.91184 3.4199,6.47419 22.1042,33.814 22.4433,32.84002 0.2241,-0.6436 -1.1838,-5.0119 -3.1285,-9.70733 z M 1673.4238,835.3569 c -1.6942,-14.42281 -3.3371,-27.75466 -3.651,-29.62635 l -0.5707,-3.40306 -16.6901,0.6791 c -25.3883,1.033 -68.5127,3.61673 -70.4851,4.22302 -2.8271,0.869 -2.0265,3.19697 2.0016,5.82027 2.0643,1.3443 23.5698,13.76534 47.79,27.60229 39.1718,22.37872 44.0727,24.92443 44.3612,23.04306 0.1784,-1.16328 -1.0618,-13.91553 -2.7559,-28.33833 z m -99.6977,-6.46735 c -4.0106,-6.96491 -5.1144,-7.94403 -9.7603,-8.65895 -2.3142,-0.35611 -5.7364,-0.92277 -7.605,-1.25925 -2.5714,-0.46304 -3.2094,-0.30778 -2.6242,0.63852 1.0591,1.71272 19.7073,13.90049 21.3795,13.97286 0.919,0.0398 0.4778,-1.44975 -1.39,-4.69318 z m 428.3905,-17.44189 c -9.5661,-24.63866 -53.0448,-134.11192 -61.306,-154.35969 l -6.9381,-17.00511 -17.4153,-4.78979 c -26.2943,-7.23188 -63.3531,-16.71666 -65.3149,-16.71666 -2.3946,0 -5.1051,-3.72537 73.3985,100.8826 77.0271,102.64048 83.0593,110.54699 83.7865,109.82022 0.2822,-0.28215 -2.5125,-8.30636 -6.2107,-17.83157 z m -437.8633,-30.57253 c 0,-7.0146 -0.2826,-15.03235 -0.6175,-17.81721 l -0.6088,-5.06338 -24.6537,-9.31385 c -43.9259,-16.59472 -90.7801,-33.92969 -93.6604,-34.65222 -2.3385,-0.58658 -2.6625,-0.44944 -1.9309,0.81711 0.4835,0.83709 9.3091,10.69084 19.6124,21.8972 l 18.7334,20.37522 20.2094,11.0033 c 48.6201,26.47192 46.4569,25.47239 55.1683,25.49105 l 7.7565,0.0166 z m 570.4343,-11.83002 c -3.8742,-13.16189 -11.5275,-38.65169 -17.0075,-56.644 -5.4798,-17.99231 -9.9635,-32.98587 -9.9635,-33.31902 0,-0.33316 -0.5052,-0.29366 -1.1227,0.0878 -1.5167,0.93685 -20.2317,29.50511 -20.2165,30.86043 0.012,1.11738 50.4248,78.76731 53.142,81.85427 0.8504,0.96616 1.6959,1.60694 1.8791,1.42395 0.183,-0.18297 -2.8369,-11.10151 -6.7109,-24.26341 z m -507.1577,21.67353 c 12.7826,-0.69051 15.0505,-1.238 13.1202,-3.16731 -1.8663,-1.86526 -60.9677,-23.67216 -61.8275,-22.81277 -0.2634,0.26331 -0.1978,6.69803 0.146,14.29938 l 0.625,13.82064 17.6054,-0.72625 c 9.6829,-0.39944 23.3319,-1.0356 30.3309,-1.41369 z m 441.0155,-48.60514 0.059,-30.00901 -39.538,-31.83585 -39.538,-31.83585 -16.7195,-2.82071 c -9.1958,-1.55139 -16.889,-2.66073 -17.0958,-2.4652 -0.337,0.31845 24.7482,31.74951 89.9511,112.70611 l 21.518,26.71696 0.6516,-5.22372 c 0.3584,-2.87305 0.6784,-18.72778 0.7111,-35.23273 z m -415.9327,33.04 c -1.0798,-1.92844 -65.9782,-73.87739 -71.2646,-79.00675 l -4.0752,-3.95414 v 19.05505 c 0,10.48027 0.2899,23.1377 0.6443,28.12763 l 0.6444,9.0726 5.6109,2.19052 c 5.0674,1.97838 62.5512,23.93553 66.1615,25.27184 2.5714,0.95176 3.1312,0.76583 2.2787,-0.75675 z m -234.0225,-6.43368 c -0.523,-0.49606 -7.9863,-4.10513 -16.5853,-8.02017 l -15.6345,-7.11824 -18.8944,-1.94295 c -10.3919,-1.06862 -20.9029,-2.19028 -23.3577,-2.49258 -10.4082,-1.28171 -0.5707,1.90889 33.5014,10.86561 33.7735,8.87821 43.2795,10.89873 40.9705,8.70833 z m 248.758,-79.12209 c 0,-54.12789 -0.3328,-80.02403 -1.0286,-80.02403 -1.0962,0 -23.0328,16.308 -60.4639,44.94984 -12.6282,9.66291 -23.4056,17.87055 -23.9497,18.23919 -0.5857,0.39679 0.05,2.02928 1.5593,4.00121 6.461,8.44406 81.9584,92.72772 83.1323,92.80708 0.4129,0.0279 0.7506,-35.96008 0.7506,-79.97329 z m -197.3616,77.93376 c -0.3172,-0.95124 -72.1364,-41.18353 -93.007,-52.10148 -6.9323,-3.62642 -8.0265,-3.91463 -11.932,-3.14268 -2.365,0.46745 -4.4673,1.35164 -4.6718,1.96488 -0.2045,0.61323 6.516,6.38407 14.9345,12.82405 l 15.3065,11.70908 33.0276,12.49038 c 18.1652,6.86971 35.7299,13.55147 39.0326,14.84837 6.9473,2.728 7.8052,2.89315 7.3096,1.4074 z m 93.2725,-27.66867 c 0,-4.95093 -2.1234,-60.72594 -2.3142,-60.89095 -0.1022,-0.0884 -14.3727,-1.84698 -31.7122,-3.90781 l -31.5264,-3.74699 -17.0142,6.61337 c -23.8556,9.27254 -39.8545,16.13229 -40.2266,17.24753 -0.174,0.52209 6.5538,3.58802 14.9509,6.81319 43.98,16.892 106.4373,40.56524 107.0941,40.59196 0.4129,0.0168 0.7498,-1.20735 0.7486,-2.7203 z m -203.1679,-5.16855 c 0,-0.74616 -11.821,-10.53346 -19.1119,-15.8239 -1.666,-1.20888 -15.8891,1.19873 -42.94,7.26858 -8.242,1.84939 -11.1607,3.44121 -6.4554,3.52062 1.6239,0.0274 15.7882,1.32814 31.4763,2.89054 31.8425,3.17123 37.031,3.47166 37.031,2.14416 z m 79.3661,-2.49377 c -1.1976,-2.11039 -17.5186,-20.47124 -22.5472,-25.36496 l -4.3861,-4.26864 -9.8127,2.01797 c -5.397,1.10988 -10.0259,2.01796 -10.2864,2.01796 -2.5552,0 3.6781,3.97372 22.7226,14.48553 22.1693,12.23674 25.9212,13.95169 24.3098,11.11214 z m -150.4379,-17.60744 c 18.9839,-3.92245 34.6666,-7.28187 34.8501,-7.46536 0.8835,-0.88298 -71.2019,-57.54198 -73.2088,-57.54198 -0.3639,0 -0.6616,16.47872 -0.6616,36.6194 v 36.6194 l 2.2519,-0.54985 c 1.2385,-0.30242 17.7843,-3.75914 36.7684,-7.68161 z m 60.0626,-12.92362 c 0,-1.31893 -4.1392,-4.08126 -14.4005,-9.61033 -5.1511,-2.77549 -8.7081,-4.19724 -8.4497,-3.3773 0.2456,0.77884 4.1567,4.22941 8.6915,7.66795 5.801,4.39871 9.1214,6.25187 11.2018,6.25187 1.6263,0 2.9569,-0.41948 2.9569,-0.93219 z m 38.6596,-7.53462 c 10.8873,-2.30475 13.3275,-3.06971 12.2997,-3.85569 -0.2294,-0.17539 -8.7641,-7.52843 -18.9661,-16.34006 -10.2021,-8.81165 -19.6662,-16.75267 -21.0314,-17.64672 -1.5821,-1.03611 -9.3726,-2.54693 -21.4844,-4.16656 -31.4234,-4.20203 -59.536,-7.24074 -59.536,-6.4353 0,0.76736 25.4325,15.00163 61.0511,34.16958 27.4092,14.75011 31.2275,16.63714 33.7745,16.69165 1.2366,0.0265 7.4882,-1.06114 13.8926,-2.4169 z M 2084.4699,683.846 c 9.9305,-14.6751 11.7706,-18.12088 10.0206,-18.7642 -1.1951,-0.43933 -38.2223,-6.51017 -49.2037,-8.06723 -3.3772,-0.47887 -4.7652,-0.35337 -4.5038,0.40723 0.7512,2.18562 33.2563,38.17773 34.4791,38.17773 0.6898,0 4.8333,-5.28909 9.2078,-11.75353 z m -648.5146,-4.86863 c 10.2933,-4.1907 20.4039,-8.31019 22.4682,-9.15444 2.0642,-0.84424 3.7531,-1.84337 3.7531,-2.2203 0,-0.96039 -76.1502,-10.16895 -77.0608,-9.31867 -0.2732,0.2551 2.3252,2.95418 5.7741,5.99796 9.8031,8.65136 25.7168,22.27083 26.0495,22.29398 0.1654,0.0115 8.7226,-3.40783 19.0159,-7.59853 z m 351.2898,-6.26478 c -1.7136,-2.44514 -56.1565,-60.22325 -61.3794,-65.13949 l -3.7194,-3.50105 0.7142,4.0012 c 0.3928,2.20066 1.9123,7.0206 3.3767,10.71097 2.6431,6.66081 2.8341,6.85719 26.1822,26.92248 31.0168,26.6558 35.1678,30.08181 35.7464,29.5035 0.2683,-0.26818 -0.146,-1.39211 -0.9207,-2.49761 z m -66.8027,-20.62612 c -4.9739,-15.96016 -5.0037,-16.02014 -10.6937,-21.50242 -3.7034,-3.56827 -5.8619,-5.02961 -6.1505,-4.16403 -0.2446,0.73347 4.4099,11.08476 10.3435,23.00287 5.9335,11.91811 10.9458,20.99408 11.1383,20.16883 0.1927,-0.82524 -1.8944,-8.70261 -4.6376,-17.50525 z m -144.2594,5.82651 c 4.1774,-3.12232 16.2651,-12.39852 26.8614,-20.61377 16.8945,-13.09805 20.9458,-16.7222 18.6932,-16.7222 -0.9172,0 -50.9146,20.33277 -62.7715,25.52774 -5.9404,2.60266 -10.6617,5.14843 -10.4921,5.65726 0.3334,0.99968 17.6981,11.62759 19.2019,11.7523 0.5014,0.0416 4.3296,-2.47902 8.5071,-5.60133 z m -69.9901,-7.8165 3.2542,-1.68188 -8.3725,-5.05877 c -4.6048,-2.78233 -37.2214,-21.57665 -72.4813,-41.76516 l -64.1088,-36.70638 -45.9833,-4.68605 c -25.2907,-2.57732 -47.447,-4.92132 -49.236,-5.20887 -1.7891,-0.28757 -3.2527,-0.0873 -3.2527,0.44505 0,0.70215 68.3673,60.29039 96.159,83.81114 1.0271,0.86931 23.7854,4.08228 65.0544,9.18426 l 63.4746,7.8472 6.1191,-2.24933 c 3.3655,-1.23713 7.5835,-3.00618 9.3733,-3.93121 z m 575.4262,-4.14202 c -2.6182,-2.83897 -64.0961,-56.68349 -123.0272,-107.7515 -30.2547,-26.21789 -36.588,-31.29373 -36.8651,-29.54561 -0.184,1.16091 0.6334,6.02574 1.8163,10.81073 l 2.1508,8.70001 48.6067,54.95708 c 26.7336,30.2264 49.1107,55.24837 49.7268,55.60438 1.0701,0.61834 47.3649,8.37532 54.6649,9.15944 1.9266,0.20694 3.9192,0.44829 4.428,0.53634 0.5089,0.088 -0.1667,-1.02385 -1.5012,-2.47087 z m -506.8063,-23.74068 c 24.7476,-10.10308 49.8321,-20.34366 55.7433,-22.75683 5.9111,-2.41319 10.7527,-4.66721 10.759,-5.00896 0.01,-0.34174 -2.1279,-0.89629 -4.7426,-1.23232 -6.3587,-0.81721 -226.7193,-23.65398 -228.2461,-23.65398 -2.9988,0 -0.3548,2.17985 10.4215,8.59205 27.8591,16.57696 108.1218,62.26218 109.526,62.34179 0.8489,0.0481 21.7914,-8.17868 46.5389,-18.28175 z m -237.7408,14.4631 c 0,-1.07068 -85.0025,-75.11759 -86.2317,-75.11759 -0.7139,0 -1.3039,64.93839 -0.591,65.0634 2.1677,0.38016 83.8232,10.82317 85.0712,10.87987 0.9633,0.0437 1.7515,-0.3278 1.7515,-0.82568 z m 661.5461,-3.84619 c -2.2424,-2.86344 -51.9063,-58.64655 -60.7814,-68.2705 -2.7905,-3.02591 -5.419,-5.16229 -5.8413,-4.74751 -0.7412,0.72822 2.6054,18.90308 4.6894,25.46715 0.7935,2.49916 6.0344,7.25331 23.5539,21.36625 28.9875,23.35085 36.4574,28.93543 38.7046,28.93543 1.6926,0 1.6683,-0.20515 -0.3252,-2.75082 z m -34.0212,-3.05475 c 0,-1.77724 -18.8997,-17.20133 -21.0774,-17.20133 -1.799,0 -0.2927,12.05143 1.763,14.10606 0.6591,0.65863 10.9646,2.7668 18.5638,3.79753 0.4128,0.056 0.7506,-0.26002 0.7506,-0.70226 z m -55.6416,-14.35837 c -1.0486,-1.1872 -33.2158,-30.10838 -71.4828,-64.2693 -95.1417,-84.93323 -111.0862,-99.0637 -112.259,-99.48767 -0.6785,-0.24529 -0.6826,0.2491 -0.012,1.50045 0.5498,1.02643 25.1436,34.05092 54.6529,73.38773 l 53.6533,71.52147 36.2704,9.67099 c 19.9486,5.31904 37.3533,9.70786 38.6772,9.75293 2.3881,0.0813 2.3921,0.065 0.5004,-2.0766 z m 19.3032,-4.09334 c -0.2889,-1.23787 -1.0423,-4.82489 -1.6742,-7.97115 -0.6319,-3.14627 -1.9081,-6.60222 -2.836,-7.6799 -2.7542,-3.19897 -143.5959,-116.13852 -144.8309,-116.13852 -1.6589,0 5.2333,6.32906 69.5824,63.89636 80.2281,71.77283 78.3721,70.13388 79.4248,70.13939 0.4725,0.002 0.6228,-1.00831 0.3339,-2.24618 z m -227.1766,-19.19667 c -1.2941,-3.81865 -2.7705,-7.07498 -3.2809,-7.2363 -0.5104,-0.16131 -2.6833,1.19054 -4.8287,3.00413 l -3.9007,3.29743 6.9032,5.86101 c 8.119,6.89324 8.8677,6.17103 5.1071,-4.92627 z m 108.692,-3.6363 c -7.2358,-12.31439 -142.4415,-194.66744 -145.0891,-195.68285 -0.8223,-0.3154 -2.2212,0.15227 -3.1087,1.03925 -1.4841,1.48339 -1.0278,3.71997 5.6931,27.89511 7.7363,27.82838 35.3404,123.13968 39.335,135.81532 l 2.3642,7.50225 6.9631,1.89469 c 42.4661,11.55503 91.5023,24.43249 93.342,24.51267 2.3043,0.10042 2.3052,0.095 0.5004,-2.97644 z m -170.4491,-11.7953 c 0,-0.47747 -4.166,-3.6021 -9.2577,-6.94362 l -9.2578,-6.07549 -109.5917,-20.12998 c -90.9227,-16.70083 -203.4833,-37.21433 -216.9314,-39.53448 -1.789,-0.30864 -3.2528,-0.17712 -3.2528,0.29227 0,0.87709 25.342,15.94953 58.0486,34.52504 l 18.5155,10.51576 133.6118,14.00408 c 73.4864,7.70224 134.6251,14.05143 135.8636,14.10931 1.2385,0.0579 2.2519,-0.28541 2.2519,-0.76289 z m 279.5488,-11.88569 c -2.2523,-12.07668 -5.0512,-24.51017 -6.1359,-27.25819 -1.0279,-2.60406 -69.5859,-80.23318 -73.5104,-83.23666 -1.2304,-0.94169 -27.814,-11.84297 -59.0744,-24.22506 -64.0176,-25.35695 -70.7695,-27.89968 -70.7695,-26.65131 0,0.99623 20.0766,17.52214 75.4319,62.09141 97.8839,78.81096 133.3113,107.03213 134.363,107.03213 0.8283,0 0.7447,-2.12633 -0.3047,-7.75232 z m -229.5069,-9.85091 c 0,-1.67248 -12.0599,-43.8903 -13.9021,-48.66666 -0.5836,-1.51296 -1.3331,-2.75083 -1.6657,-2.75083 -0.3325,0 -0.3747,1.23787 -0.094,2.75083 0.281,1.51295 1.5312,12.52218 2.7783,24.46495 l 2.2673,21.71412 4.5573,2.01038 c 5.5702,2.4573 6.0585,2.49575 6.0585,0.47721 z m -55.5559,-5.41883 c -0.6519,-1.05426 -7.0354,-3.98605 -8.679,-3.98605 -1.7713,0 0.424,2.1992 3.5541,3.56068 3.7569,1.63407 5.9868,1.81916 5.1249,0.42537 z m -307.2977,-5.92021 c -1.4205,-1.39512 -74.5992,-43.07935 -75.628,-43.07935 -0.4872,0 -0.886,8.24291 -0.886,18.31756 v 18.31756 l 33.2779,3.57283 c 35.2503,3.78462 44.8124,4.41966 43.2361,2.8714 z m 334.4431,-4.31771 c -0.338,-2.3382 -3.5598,-29.68391 -7.1596,-60.76825 -3.5999,-31.08433 -7.4073,-62.48682 -8.4611,-69.78332 -2.0269,-14.03581 -5.4213,-28.1458 -7.3537,-30.56869 -0.9929,-1.24484 -18.3852,-1.61556 -121.2596,-2.58471 -143.0038,-1.3472 -152.9105,-1.36083 -152.1984,-0.20936 0.301,0.48682 39.623,26.53103 87.3821,57.876 l 86.8348,56.99087 59.5498,26.56555 c 32.7524,14.61104 60.3891,26.60327 61.4148,26.64937 1.6311,0.0733 1.788,-0.44985 1.2509,-4.16746 z m -77.7097,0.50015 c -0.043,-1.02604 -0.7745,-1.52715 -31.9954,-21.92087 l -27.523,-17.97824 -135.6679,-60.19951 c -74.6172,-33.10972 -136.2104,-60.19951 -136.8737,-60.19951 -0.9281,0 -1.1461,11.55945 -0.9464,50.1722 l 0.2594,50.17219 163.6369,30.24025 c 90.0003,16.63213 164.8754,30.29052 166.3892,30.35198 1.5138,0.0614 2.7382,-0.22587 2.7209,-0.63849 z m 322.7625,-39.01171 c -1.2383,-7.37214 -2.5537,-9.90904 -7.727,-14.90189 -10.8532,-10.47472 -23.0417,-19.40992 -24.4953,-17.95711 -0.6782,0.67788 3.0574,5.25128 18.669,22.85599 6.7084,7.56477 12.6439,13.75413 13.1902,13.75413 0.5924,0 0.7389,-1.51356 0.3631,-3.75112 z M 1435.154,442.6793 c 0,-0.94612 -9.7101,-7.49346 -64.554,-43.52735 l -38.0318,-24.98792 -27.523,-0.37682 c -17.7976,-0.24368 -26.9907,-0.0379 -26.0167,0.58232 3.2478,2.06793 153.913,69.11222 155.3749,69.14004 0.4128,0.008 0.7506,-0.36577 0.7506,-0.83027 z m 379.3173,-16.04287 c 0,-0.48544 -1.9141,-2.79673 -4.2536,-5.13618 -4.5741,-4.5741 -14.6258,-11.3835 -55.2962,-37.4595 l -26.0218,-16.68397 -8.0067,0.545 c -4.4037,0.29975 -14.9875,0.79652 -23.5196,1.10394 -20.2008,0.72785 -28.4435,1.4832 -27.3818,2.50922 1.1409,1.10229 114.6684,45.78814 140.4764,55.29326 2.3472,0.8645 4.0033,0.79345 4.0033,-0.17177 z m -51.2867,-58.38517 c -0.2259,-0.68771 -1.7271,-1.37311 -3.3361,-1.5231 -2.7905,-0.26015 -2.8358,-0.20252 -0.9826,1.25037 2.3482,1.84088 4.8866,2.00118 4.3187,0.27273 z m -195.4197,-7.85133 c -2.9297,-0.87337 -55.7617,-8.72701 -208.1741,-30.94572 -41.2845,-6.01848 -76.5265,-11.19381 -78.3155,-11.50076 -1.789,-0.30695 -3.2527,-0.1501 -3.2527,0.34855 0,0.49865 14.0372,10.08442 31.194,21.3017 l 31.194,20.39508 31.1081,0.52161 c 54.8891,0.92038 199.4401,0.83164 196.2462,-0.12046 z m -258.7164,-0.79255 c 0,-0.77429 -51.1097,-34.94397 -56.9028,-38.04266 l -2.1466,-1.1482 v 19.51898 19.51898 l 18.7657,0.2956 c 10.3212,0.16258 23.6073,0.39758 29.5247,0.52222 5.9175,0.12465 10.759,-0.17457 10.759,-0.66492 z m 381.7344,-4.17871 c 13.6718,-0.85037 16.6801,-1.29388 15.5146,-2.28726 -0.6825,-0.58162 -65.8396,-42.21999 -87.7743,-56.09174 -11.1655,-7.06127 -20.5613,-12.57863 -20.8793,-12.2608 -0.5918,0.59146 11.0773,16.53927 38.4395,52.53462 l 15.4599,20.33762 12.1561,-0.65199 c 6.6858,-0.35859 18.8734,-1.06979 27.0835,-1.58045 z m -66.4707,-2.46371 c 0,-0.29253 -12.0942,-17.96034 -26.8761,-39.26179 -35.4113,-51.02947 -36.1758,-52.1154 -37.0858,-52.67747 -0.5791,-0.35771 -102.9937,14.97038 -140.555,21.03644 -2.117,0.34189 -3.4681,0.97706 -3.0026,1.41147 1.1835,1.10417 108.7286,38.3447 191.5061,66.31445 9.6229,3.25149 16.0134,4.5193 16.0134,3.1769 z m -86.6224,-13.33693 c -0.523,-0.47568 -34.4464,-12.488 -75.3855,-26.69402 l -74.4346,-25.82914 -25.1487,3.8087 c -32.6531,4.94524 -65.7383,10.2784 -72.6884,11.717 -4.8783,1.00976 -5.2199,1.23378 -3.0025,1.96876 1.3762,0.45613 38.5322,6.05848 82.5691,12.44965 44.0368,6.39118 98.082,14.24827 120.1004,17.46021 39.2495,5.72549 49.9068,6.86226 47.9902,5.11884 z m -233.1973,-53.21495 c 26.9437,-4.43342 49.6878,-8.45181 50.5423,-8.92973 1.7516,-0.97977 2.1839,-0.77277 -12.5798,-6.02295 -16.4958,-5.8661 -91.6908,-31.99781 -92.075,-31.99781 -0.6712,0 -0.4064,54.65753 0.2682,55.33173 0.3569,0.35677 1.5954,0.4306 2.7523,0.16409 1.1567,-0.26651 24.1482,-4.11191 51.092,-8.54533 z m 100.136,-16.42906 c 41.0739,-6.3696 84.5707,-13.91868 84.5707,-14.67768 0,-0.46158 -1.2543,-0.83924 -2.7875,-0.83924 -1.5331,0 -39.4773,-2.68637 -84.3206,-5.9697 -44.8431,-3.28333 -87.1627,-6.23251 -94.0434,-6.55371 -17.7141,-0.82696 -20.6811,-2.13889 50.0268,22.12098 13.4781,4.6243 25.8635,8.40667 27.5231,8.40524 1.6596,-0.001 10.2235,-1.12007 19.0309,-2.48589 z"
       id="path1" />
  </g>
</svg>
